name C:\Users\u0150099\Documents\master_thesis\3dpredictsim\Results\debug\Fal_s1_mtjc_sc_cspx10_oy_TrackAnkleQSubtQ_MTc2_MTPm_k1_d01_MTJm_nl_MG_exp_v2_table_d01_PF_Natali2010_ls146_FDB_ig21.mot
datacolumns 130
datarows 4
range 1.63839203 1.67115987
endheader
time	pelvis_tilt	pelvis_list	pelvis_rotation	pelvis_tx	pelvis_ty	pelvis_tz	hip_flexion_l	hip_adduction_l	hip_rotation_l	hip_flexion_r	hip_adduction_r	hip_rotation_r	knee_angle_l	knee_angle_r	ankle_angle_l	ankle_angle_r	subtalar_angle_l	subtalar_angle_r	mtj_angle_l	mtj_angle_r	mtp_angle_l	mtp_angle_r	lumbar_extension	lumbar_bending	lumbar_rotation	arm_flex_l	arm_add_l	arm_rot_l	arm_flex_r	arm_add_r	arm_rot_r	elbow_flex_l	elbow_flex_r	pro_sup_l	pro_sup_r	glut_med1_l/activation	glut_med2_l/activation	glut_med3_l/activation	glut_min1_l/activation	glut_min2_l/activation	glut_min3_l/activation	semimem_l/activation	semiten_l/activation	bifemlh_l/activation	bifemsh_l/activation	sar_l/activation	add_long_l/activation	add_brev_l/activation	add_mag1_l/activation	add_mag2_l/activation	add_mag3_l/activation	tfl_l/activation	pect_l/activation	grac_l/activation	glut_max1_l/activation	glut_max2_l/activation	glut_max3_l/activation	iliacus_l/activation	psoas_l/activation	quad_fem_l/activation	gem_l/activation	peri_l/activation	rect_fem_l/activation	vas_med_l/activation	vas_int_l/activation	vas_lat_l/activation	med_gas_l/activation	lat_gas_l/activation	soleus_l/activation	tib_post_l/activation	flex_dig_l/activation	flex_hal_l/activation	tib_ant_l/activation	per_brev_l/activation	per_long_l/activation	per_tert_l/activation	ext_dig_l/activation	ext_hal_l/activation	FDB_l/activation	ercspn_l/activation	intobl_l/activation	extobl_l/activation	glut_med1_r/activation	glut_med2_r/activation	glut_med3_r/activation	glut_min1_r/activation	glut_min2_r/activation	glut_min3_r/activation	semimem_r/activation	semiten_r/activation	bifemlh_r/activation	bifemsh_r/activation	sar_r/activation	add_long_r/activation	add_brev_r/activation	add_mag1_r/activation	add_mag2_r/activation	add_mag3_r/activation	tfl_r/activation	pect_r/activation	grac_r/activation	glut_max1_r/activation	glut_max2_r/activation	glut_max3_r/activation	iliacus_r/activation	psoas_r/activation	quad_fem_r/activation	gem_r/activation	peri_r/activation	rect_fem_r/activation	vas_med_r/activation	vas_int_r/activation	vas_lat_r/activation	med_gas_r/activation	lat_gas_r/activation	soleus_r/activation	tib_post_r/activation	flex_dig_r/activation	flex_hal_r/activation	tib_ant_r/activation	per_brev_r/activation	per_long_r/activation	per_tert_r/activation	ext_dig_r/activation	ext_hal_r/activation	FDB_r/activation	ercspn_r/activation	intobl_r/activation	extobl_r/activation	
          1.63839203	         -2.92040924	          1.50014649	         -4.76670125	          2.17906139	          0.90921716	          0.00526721	         27.17166757	          2.20599627	         -5.11718679	        -10.93919772	          0.87543411	          4.51650297	         -7.18230297	        -22.42550560	          1.54823600	          3.06628732	         -0.11092809	          5.11662047	          1.43703532	         -0.68284060	          1.83653074	         25.70515956	         -4.78682231	         -0.54438933	          2.01518472	         -3.08259934	        -13.45056449	          9.23761577	          4.61956589	        -14.15192940	         19.37523036	         21.98351132	         40.23817721	         86.51662706	         86.51662706	          0.08158780	          0.05000253	          0.05838219	          0.05000179	          0.05000239	          0.05005827	          0.32245548	          0.06986329	          0.16989590	          0.06986250	          0.07333990	          0.06414487	          0.08257721	          0.08197329	          0.05008478	          0.15365830	          0.05000672	          0.05024839	          0.06992016	          0.05005773	          0.06196003	          0.16468983	          0.09239657	          0.11510281	          0.15440383	          0.05000314	          0.05000250	          0.05000009	          0.05000039	          0.05000037	          0.05000037	          0.05910229	          0.11538256	          0.05910215	          0.17015812	          0.08256956	          0.05386667	          0.25880832	          0.17233621	          0.16181039	          0.32987479	          0.64577488	          0.38530056	          0.05178993	          0.05489623	          0.13492241	          0.11733826	          0.23018620	          0.05000121	          0.05000031	          0.49278227	          0.20228323	          0.05448376	          0.05000705	          0.05000076	          0.05000067	          0.05000066	          0.05000468	          0.05000041	          0.05000062	          0.05000119	          0.05000399	          0.05001111	          0.58452145	          0.05000182	          0.05000091	          0.05000716	          0.05000414	          0.05000235	          0.18733222	          0.50590259	          0.05000023	          0.05000079	          0.05000040	          0.62263702	          0.19343856	          0.19488661	          0.16006372	          0.42965553	          0.64542770	          0.22906203	          0.53458612	          0.50771231	          0.60541757	          0.05000005	          0.05000115	          0.33224455	          0.05000024	          0.05000012	          0.09761313	          0.71328825	          0.05000007	          0.05000020	          0.05000027	
          1.64931464	         -2.92485819	          1.62336491	         -5.06505599	          2.19669130	          0.90807864	          0.00493019	         27.16219195	          2.42598754	         -4.96862707	        -12.00445033	          0.38119301	          4.44158103	         -8.18951886	        -22.05901543	          1.10013499	          1.89453759	         -0.38737805	          5.43908257	          1.62003136	         -2.05568594	          1.47603289	         28.46381359	         -4.59684247	         -0.77972430	          2.11583668	         -3.92706003	        -13.45227220	          8.71313581	          4.23426680	        -14.09274799	         19.38423511	         21.36652879	         41.67220836	         86.51662706	         86.51662706	          0.06902325	          0.05003031	          0.05000124	          0.05910219	          0.05910110	          0.05000445	          0.27279519	          0.05910389	          0.14373076	          0.05910321	          0.07333178	          0.09762656	          0.06986265	          0.06935911	          0.06983321	          0.19355246	          0.05000344	          0.05007743	          0.05915224	          0.05000336	          0.09906047	          0.24841802	          0.08995401	          0.09760355	          0.16851763	          0.13638795	          0.07020366	          0.05354550	          0.05000051	          0.05000050	          0.05000051	          0.05000013	          0.09761286	          0.05000001	          0.18383906	          0.06986136	          0.06986132	          0.26597896	          0.23879419	          0.16214230	          0.33417668	          0.67560418	          0.40308213	          0.05910223	          0.05000014	          0.11414344	          0.09926735	          0.19473595	          0.05000047	          0.05000015	          0.41689036	          0.17113042	          0.05000086	          0.05000710	          0.05000077	          0.05000064	          0.05000099	          0.05000610	          0.06592333	          0.05011064	          0.05000198	          0.05000554	          0.05001055	          0.56097612	          0.05934578	          0.05000133	          0.05000289	          0.05000178	          0.05000131	          0.15848191	          0.51340975	          0.05000015	          0.05000060	          0.05000059	          0.56432416	          0.19391146	          0.19379142	          0.16156336	          0.38570987	          0.59115081	          0.19378477	          0.49120563	          0.43984686	          0.51218051	          0.05000004	          0.05000129	          0.31212620	          0.05000021	          0.05000011	          0.08258002	          0.60343666	          0.05000010	          0.05317929	          0.05000074	
          1.66023725	         -2.92715137	          1.75635210	         -5.34442387	          2.21462982	          0.90701942	          0.00455845	         27.16006295	          2.64430397	         -4.77822471	        -12.97988782	         -0.13037808	          4.34938301	         -9.89030876	        -21.79372164	          0.43147077	          0.50157545	         -0.73023454	          5.71853997	          1.71890900	         -3.60120770	          1.16216945	         31.57058020	         -4.39607647	         -1.03172071	          2.20996777	         -4.81024442	        -13.47002725	          8.36657581	          3.78020688	        -14.02659342	         19.35234382	         20.80852429	         43.07671665	         86.51662706	         86.51662706	          0.15411563	          0.05000042	          0.05000864	          0.05000062	          0.05000064	          0.05000104	          0.23078279	          0.05000151	          0.12159537	          0.05000092	          0.07965938	          0.08259331	          0.05910663	          0.05910307	          0.05908207	          0.23924115	          0.05707436	          0.06992019	          0.05004254	          0.05000118	          0.15037763	          0.29598226	          0.08257932	          0.08257930	          0.26392784	          0.11538372	          0.05939231	          0.05910229	          0.05910225	          0.05910224	          0.05910223	          0.06986161	          0.08257985	          0.06985728	          0.19469093	          0.05910236	          0.05910245	          0.34158031	          0.27460987	          0.17072246	          0.55853375	          0.71530985	          0.37979190	          0.05000006	          0.05000013	          0.09656458	          0.08397946	          0.16474526	          0.05000399	          0.05117865	          0.35268628	          0.14477533	          0.05004134	          0.05000353	          0.05000054	          0.05000106	          0.05000017	          0.05000137	          0.07778823	          0.11489548	          0.05910355	          0.05910448	          0.05916054	          0.47464734	          0.06970758	          0.05000167	          0.05011432	          0.05019656	          0.05910213	          0.13407464	          0.52223794	          0.05910218	          0.05909954	          0.05909594	          0.47741416	          0.17651638	          0.17653766	          0.14754847	          0.32630797	          0.51479427	          0.16394047	          0.41555674	          0.37210780	          0.43330124	          0.05000001	          0.05000112	          0.27864342	          0.05000012	          0.05000006	          0.06986211	          0.51050296	          0.05000015	          0.05910223	          0.05000045	
          1.67115987	         -2.92821870	          1.89587378	         -5.60624984	          2.23278443	          0.90606284	          0.00414970	         27.10076262	          2.86078216	         -4.55355650	        -13.82914144	         -0.64908123	          4.25417123	        -11.76425506	        -21.67059496	         -0.30330660	         -1.15794048	         -1.12105092	          5.94038767	          1.96589119	         -5.29236449	          0.92828602	         34.98949977	         -4.19039964	         -1.29238363	          2.29721001	         -5.71210491	        -13.49625269	          8.17235479	          3.27063321	        -13.96367274	         19.30458042	         20.29274556	         44.45923350	         86.51662706	         86.51662706	          0.33149531	          0.28092059	          0.27337052	          0.23530942	          0.19160894	          0.21065582	          0.19524057	          0.17160797	          0.13559380	          0.13217672	          0.06986348	          0.06987371	          0.05000434	          0.05000180	          0.05000085	          0.28891514	          0.05000190	          0.05915501	          0.28002368	          0.10871582	          0.25534704	          0.37511955	          0.06986170	          0.06986165	          0.22328130	          0.09761434	          0.08255138	          0.05000011	          0.05000010	          0.05000009	          0.05000007	          0.05910241	          0.06986194	          0.05909874	          0.19469437	          0.05000021	          0.05000031	          0.40099447	          0.23231821	          0.17545962	          0.48047703	          0.83526532	          0.64111943	          0.45028664	          0.07836823	          0.08547171	          0.07104601	          0.13937338	          0.05000083	          0.05000026	          0.29837019	          0.12247922	          0.05000187	          0.05001068	          0.05000164	          0.05000096	          0.08258052	          0.05913633	          0.13195616	          0.09720117	          0.05000179	          0.05000401	          0.05005005	          0.52976876	          0.05910246	          0.05000586	          0.05000373	          0.05000235	          0.05000200	          0.11342780	          0.66098180	          0.05000046	          0.05000119	          0.05000057	          0.40388887	          0.14933166	          0.14934966	          0.12482500	          0.27605414	          0.43551233	          0.13869242	          0.35155799	          0.31480058	          0.36656979	          0.05000287	          0.05000289	          0.23573291	          0.05000090	          0.05000026	          0.05910284	          0.43188173	          0.07562423	          0.05000008	          0.05000018	
